# xmcd
#
# Track frame offsets:
#	150
#	19000
#	34530
#	51662
#	71617
#	91575
#	111460
#	129632
#	143995
#	164305
#	180275
#	195937
#	209702
#	225370
#
# Disc length: 3227 seconds
#
# Revision: 1
# Processed by: cddbd v1.4PL0 Copyright (c) Steve Scherf et al.
# Submitted via: audiograbber 1.80.04
#
DISCID=bc0c990e
DTITLE=Wentus Blues Band (Finland) - No Beginner
DYEAR=2001
DGENRE=Blues
TTITLE0=Beginner At The Blues
TTITLE1=I Warned You About Him
TTITLE2=Come On
TTITLE3=Mississippi Girl
TTITLE4=So Many Roads
TTITLE5=Good Time Charlie
TTITLE6=Hold On Tight
TTITLE7=SunDay
TTITLE8=Standing On The Edge Of Your Love
TTITLE9=Back In The Same Old Bag Again
TTITLE10=Little Girl
TTITLE11=Roll 'Em Pete
TTITLE12=Mellow Tree
TTITLE13=I Ain't Gonna Be Your Monkey Man
EXTD=This Band Are From Finland - 1st UK Tour April 2002
EXTT0=
EXTT1=
EXTT2=
EXTT3=
EXTT4=
EXTT5=
EXTT6=
EXTT7=
EXTT8=
EXTT9=
EXTT10=
EXTT11=
EXTT12=
EXTT13=
PLAYORDER=
